<?xml version="1.0" encoding="UTF-8" standalone="no"?>
<!DOCTYPE svg PUBLIC "-//W3C//DTD SVG 1.1//EN"
 "http://www.w3.org/Graphics/SVG/1.1/DTD/svg11.dtd">
<!-- Generated by graphviz version 2.44.0 (0)
 -->
<!-- Title: dependencies Pages: 1 -->
<svg width="808pt" height="908pt"
 viewBox="0.00 0.00 807.50 908.00" xmlns="http://www.w3.org/2000/svg" xmlns:xlink="http://www.w3.org/1999/xlink">
<g id="graph0" class="graph" transform="scale(1 1) rotate(0) translate(4 904)">
<title>dependencies</title>
<polygon fill="white" stroke="transparent" points="-4,4 -4,-904 803.5,-904 803.5,4 -4,4"/>
<!-- edone -->
<g id="node1" class="node">
<title>edone</title>
<g id="a_node1"><a xlink:href="./docs/current/GraphTheory.edone.html" xlink:title="edone">
<ellipse fill="yellow" stroke="yellow" cx="85" cy="-882" rx="38.5" ry="18"/>
<text text-anchor="middle" x="85" y="-878.3" font-family="Times-Roman" font-size="14.00">edone</text>
</a>
</g>
</g>
<!-- preliminaries -->
<g id="node3" class="node">
<title>preliminaries</title>
<g id="a_node3"><a xlink:href="./docs/current/GraphTheory.preliminaries.html" xlink:title="preliminaries">
<ellipse fill="yellow" stroke="yellow" cx="211" cy="-882" rx="69.59" ry="18"/>
<text text-anchor="middle" x="211" y="-878.3" font-family="Times-Roman" font-size="14.00">preliminaries</text>
</a>
</g>
</g>
<!-- edone&#45;&gt;preliminaries -->
<g id="edge1" class="edge">
<title>edone&#45;&gt;preliminaries</title>
<path fill="none" stroke="black" d="M123.88,-882C126.32,-882 128.76,-882 131.2,-882"/>
<polygon fill="black" stroke="black" points="131.24,-885.5 141.24,-882 131.24,-878.5 131.24,-885.5"/>
</g>
<!-- bounded -->
<g id="node2" class="node">
<title>bounded</title>
<g id="a_node2"><a xlink:href="./docs/current/GraphTheory.bounded.html" xlink:title="bounded">
<ellipse fill="yellow" stroke="yellow" cx="393" cy="-234" rx="50.89" ry="18"/>
<text text-anchor="middle" x="393" y="-230.3" font-family="Times-Roman" font-size="14.00">bounded</text>
</a>
</g>
</g>
<!-- extraction_def -->
<g id="node28" class="node">
<title>extraction_def</title>
<g id="a_node28"><a xlink:href="./docs/current/GraphTheory.extraction_def.html" xlink:title="extraction_def">
<ellipse fill="red" stroke="red" cx="380" cy="-162" rx="75.5" ry="18"/>
<text text-anchor="middle" x="380" y="-158.3" font-family="Times-Roman" font-size="14.00">extraction_def</text>
</a>
</g>
</g>
<!-- bounded&#45;&gt;extraction_def -->
<g id="edge2" class="edge">
<title>bounded&#45;&gt;extraction_def</title>
<path fill="none" stroke="black" d="M389.79,-215.7C388.35,-207.98 386.63,-198.71 385.04,-190.11"/>
<polygon fill="black" stroke="black" points="388.44,-189.3 383.18,-180.1 381.56,-190.58 388.44,-189.3"/>
</g>
<!-- set_tac -->
<g id="node5" class="node">
<title>set_tac</title>
<g id="a_node5"><a xlink:href="./docs/current/GraphTheory.set_tac.html" xlink:title="set_tac">
<ellipse fill="yellow" stroke="yellow" cx="211" cy="-810" rx="42.49" ry="18"/>
<text text-anchor="middle" x="211" y="-806.3" font-family="Times-Roman" font-size="14.00">set_tac</text>
</a>
</g>
</g>
<!-- preliminaries&#45;&gt;set_tac -->
<g id="edge3" class="edge">
<title>preliminaries&#45;&gt;set_tac</title>
<path fill="none" stroke="black" d="M211,-863.7C211,-855.98 211,-846.71 211,-838.11"/>
<polygon fill="black" stroke="black" points="214.5,-838.1 211,-828.1 207.5,-838.1 214.5,-838.1"/>
</g>
<!-- bij -->
<g id="node6" class="node">
<title>bij</title>
<g id="a_node6"><a xlink:href="./docs/current/GraphTheory.bij.html" xlink:title="bij">
<ellipse fill="yellow" stroke="yellow" cx="357" cy="-810" rx="27" ry="18"/>
<text text-anchor="middle" x="357" y="-806.3" font-family="Times-Roman" font-size="14.00">bij</text>
</a>
</g>
</g>
<!-- preliminaries&#45;&gt;bij -->
<g id="edge4" class="edge">
<title>preliminaries&#45;&gt;bij</title>
<path fill="none" stroke="black" d="M242.68,-865.81C267.56,-853.88 301.98,-837.38 326.54,-825.61"/>
<polygon fill="black" stroke="black" points="328.25,-828.67 335.75,-821.19 325.22,-822.36 328.25,-828.67"/>
</g>
<!-- arc -->
<g id="node39" class="node">
<title>arc</title>
<g id="a_node39"><a xlink:href="./docs/current/GraphTheory.arc.html" xlink:title="arc">
<ellipse fill="green" stroke="green" cx="27" cy="-666" rx="27" ry="18"/>
<text text-anchor="middle" x="27" y="-662.3" font-family="Times-Roman" font-size="14.00">arc</text>
</a>
</g>
</g>
<!-- preliminaries&#45;&gt;arc -->
<g id="edge5" class="edge">
<title>preliminaries&#45;&gt;arc</title>
<path fill="none" stroke="black" d="M183.35,-865.35C149.03,-844.58 90.88,-804.79 57,-756 44.03,-737.33 36.29,-712.6 31.93,-693.95"/>
<polygon fill="black" stroke="black" points="35.32,-693.06 29.79,-684.02 28.48,-694.54 35.32,-693.06"/>
</g>
<!-- finmap_plus -->
<g id="node4" class="node">
<title>finmap_plus</title>
<g id="a_node4"><a xlink:href="./docs/current/GraphTheory.finmap_plus.html" xlink:title="finmap_plus">
<ellipse fill="yellow" stroke="yellow" cx="415" cy="-738" rx="65.79" ry="18"/>
<text text-anchor="middle" x="415" y="-734.3" font-family="Times-Roman" font-size="14.00">finmap_plus</text>
</a>
</g>
</g>
<!-- open_confluence -->
<g id="node35" class="node">
<title>open_confluence</title>
<g id="a_node35"><a xlink:href="./docs/current/GraphTheory.open_confluence.html" xlink:title="open_confluence">
<ellipse fill="blueviolet" stroke="blueviolet" cx="587" cy="-378" rx="87.18" ry="18"/>
<text text-anchor="middle" x="587" y="-374.3" font-family="Times-Roman" font-size="14.00">open_confluence</text>
</a>
</g>
</g>
<!-- finmap_plus&#45;&gt;open_confluence -->
<g id="edge6" class="edge">
<title>finmap_plus&#45;&gt;open_confluence</title>
<path fill="none" stroke="black" d="M435.61,-720.6C463.55,-696.36 510,-648.09 510,-595 510,-595 510,-595 510,-521 510,-480.46 509.81,-467.15 530,-432 536.47,-420.74 546.11,-410.47 555.63,-402.02"/>
<polygon fill="black" stroke="black" points="558.13,-404.5 563.53,-395.38 553.63,-399.14 558.13,-404.5"/>
</g>
<!-- sgraph -->
<g id="node12" class="node">
<title>sgraph</title>
<g id="a_node12"><a xlink:href="./docs/current/GraphTheory.sgraph.html" xlink:title="sgraph">
<ellipse fill="orange" stroke="orange" cx="285" cy="-666" rx="42.49" ry="18"/>
<text text-anchor="middle" x="285" y="-662.3" font-family="Times-Roman" font-size="14.00">sgraph</text>
</a>
</g>
</g>
<!-- set_tac&#45;&gt;sgraph -->
<g id="edge7" class="edge">
<title>set_tac&#45;&gt;sgraph</title>
<path fill="none" stroke="black" d="M211.7,-791.9C213.11,-773.17 217.34,-742.79 230,-720 236.61,-708.11 246.75,-697.24 256.53,-688.48"/>
<polygon fill="black" stroke="black" points="258.88,-691.07 264.23,-681.93 254.35,-685.74 258.88,-691.07"/>
</g>
<!-- bij&#45;&gt;finmap_plus -->
<g id="edge8" class="edge">
<title>bij&#45;&gt;finmap_plus</title>
<path fill="none" stroke="black" d="M369.59,-793.81C376.95,-784.93 386.41,-773.5 394.79,-763.39"/>
<polygon fill="black" stroke="black" points="397.54,-765.56 401.22,-755.63 392.15,-761.1 397.54,-765.56"/>
</g>
<!-- finite_quotient -->
<g id="node7" class="node">
<title>finite_quotient</title>
<g id="a_node7"><a xlink:href="./docs/current/GraphTheory.finite_quotient.html" xlink:title="finite_quotient">
<ellipse fill="yellow" stroke="yellow" cx="574" cy="-738" rx="75.5" ry="18"/>
<text text-anchor="middle" x="574" y="-734.3" font-family="Times-Roman" font-size="14.00">finite_quotient</text>
</a>
</g>
</g>
<!-- bij&#45;&gt;finite_quotient -->
<g id="edge9" class="edge">
<title>bij&#45;&gt;finite_quotient</title>
<path fill="none" stroke="black" d="M381.05,-801.24C414.67,-790.4 476.59,-770.42 521.23,-756.02"/>
<polygon fill="black" stroke="black" points="522.32,-759.35 530.76,-752.95 520.17,-752.69 522.32,-759.35"/>
</g>
<!-- digraph -->
<g id="node11" class="node">
<title>digraph</title>
<g id="a_node11"><a xlink:href="./docs/current/GraphTheory.digraph.html" xlink:title="digraph">
<ellipse fill="orange" stroke="orange" cx="285" cy="-738" rx="46.29" ry="18"/>
<text text-anchor="middle" x="285" y="-734.3" font-family="Times-Roman" font-size="14.00">digraph</text>
</a>
</g>
</g>
<!-- bij&#45;&gt;digraph -->
<g id="edge10" class="edge">
<title>bij&#45;&gt;digraph</title>
<path fill="none" stroke="black" d="M342.43,-794.83C332.75,-785.42 319.81,-772.85 308.67,-762.01"/>
<polygon fill="black" stroke="black" points="310.92,-759.32 301.31,-754.85 306.04,-764.33 310.92,-759.32"/>
</g>
<!-- structures -->
<g id="node31" class="node">
<title>structures</title>
<g id="a_node31"><a xlink:href="./docs/current/GraphTheory.structures.html" xlink:title="structures">
<ellipse fill="blueviolet" stroke="blueviolet" cx="724" cy="-738" rx="56.59" ry="18"/>
<text text-anchor="middle" x="724" y="-734.3" font-family="Times-Roman" font-size="14.00">structures</text>
</a>
</g>
</g>
<!-- bij&#45;&gt;structures -->
<g id="edge11" class="edge">
<title>bij&#45;&gt;structures</title>
<path fill="none" stroke="black" d="M383.4,-805.11C436.07,-797.2 557.84,-778.07 659,-756 663.41,-755.04 667.98,-753.98 672.55,-752.87"/>
<polygon fill="black" stroke="black" points="673.65,-756.2 682.51,-750.39 671.96,-749.41 673.65,-756.2"/>
</g>
<!-- hmap_ops -->
<g id="node38" class="node">
<title>hmap_ops</title>
<g id="a_node38"><a xlink:href="./docs/current/GraphTheory.hmap_ops.html" xlink:title="hmap_ops">
<ellipse fill="green" stroke="green" cx="123" cy="-738" rx="57.39" ry="18"/>
<text text-anchor="middle" x="123" y="-734.3" font-family="Times-Roman" font-size="14.00">hmap_ops</text>
</a>
</g>
</g>
<!-- bij&#45;&gt;hmap_ops -->
<g id="edge12" class="edge">
<title>bij&#45;&gt;hmap_ops</title>
<path fill="none" stroke="black" d="M332.84,-801.77C295.26,-790.53 222.01,-768.62 172.79,-753.89"/>
<polygon fill="black" stroke="black" points="173.56,-750.47 162.98,-750.96 171.55,-757.18 173.56,-750.47"/>
</g>
<!-- equiv -->
<g id="node8" class="node">
<title>equiv</title>
<g id="a_node8"><a xlink:href="./docs/current/GraphTheory.equiv.html" xlink:title="equiv">
<ellipse fill="yellow" stroke="yellow" cx="575" cy="-666" rx="36" ry="18"/>
<text text-anchor="middle" x="575" y="-662.3" font-family="Times-Roman" font-size="14.00">equiv</text>
</a>
</g>
</g>
<!-- finite_quotient&#45;&gt;equiv -->
<g id="edge13" class="edge">
<title>finite_quotient&#45;&gt;equiv</title>
<path fill="none" stroke="black" d="M574.25,-719.7C574.36,-711.98 574.49,-702.71 574.61,-694.11"/>
<polygon fill="black" stroke="black" points="578.11,-694.15 574.76,-684.1 571.11,-694.05 578.11,-694.15"/>
</g>
<!-- mgraph -->
<g id="node23" class="node">
<title>mgraph</title>
<g id="a_node23"><a xlink:href="./docs/current/GraphTheory.mgraph.html" xlink:title="mgraph">
<ellipse fill="#cd00cd" stroke="#cd00cd" cx="584" cy="-594" rx="46.29" ry="18"/>
<text text-anchor="middle" x="584" y="-590.3" font-family="Times-Roman" font-size="14.00">mgraph</text>
</a>
</g>
</g>
<!-- equiv&#45;&gt;mgraph -->
<g id="edge14" class="edge">
<title>equiv&#45;&gt;mgraph</title>
<path fill="none" stroke="black" d="M577.22,-647.7C578.22,-639.98 579.41,-630.71 580.51,-622.11"/>
<polygon fill="black" stroke="black" points="584,-622.47 581.8,-612.1 577.05,-621.58 584,-622.47"/>
</g>
<!-- setoid_bigop -->
<g id="node9" class="node">
<title>setoid_bigop</title>
<g id="a_node9"><a xlink:href="./docs/current/GraphTheory.setoid_bigop.html" xlink:title="setoid_bigop">
<ellipse fill="yellow" stroke="yellow" cx="724" cy="-810" rx="67.69" ry="18"/>
<text text-anchor="middle" x="724" y="-806.3" font-family="Times-Roman" font-size="14.00">setoid_bigop</text>
</a>
</g>
</g>
<!-- setoid_bigop&#45;&gt;structures -->
<g id="edge15" class="edge">
<title>setoid_bigop&#45;&gt;structures</title>
<path fill="none" stroke="black" d="M724,-791.7C724,-783.98 724,-774.71 724,-766.11"/>
<polygon fill="black" stroke="black" points="727.5,-766.1 724,-756.1 720.5,-766.1 727.5,-766.1"/>
</g>
<!-- partition -->
<g id="node10" class="node">
<title>partition</title>
<g id="a_node10"><a xlink:href="./docs/current/GraphTheory.partition.html" xlink:title="partition">
<ellipse fill="yellow" stroke="yellow" cx="188" cy="-594" rx="48.99" ry="18"/>
<text text-anchor="middle" x="188" y="-590.3" font-family="Times-Roman" font-size="14.00">partition</text>
</a>
</g>
</g>
<!-- coloring -->
<g id="node20" class="node">
<title>coloring</title>
<g id="a_node20"><a xlink:href="./docs/current/GraphTheory.coloring.html" xlink:title="coloring">
<ellipse fill="orange" stroke="orange" cx="190" cy="-522" rx="47" ry="18"/>
<text text-anchor="middle" x="190" y="-518.3" font-family="Times-Roman" font-size="14.00">coloring</text>
</a>
</g>
</g>
<!-- partition&#45;&gt;coloring -->
<g id="edge16" class="edge">
<title>partition&#45;&gt;coloring</title>
<path fill="none" stroke="black" d="M188.49,-575.7C188.71,-567.98 188.98,-558.71 189.23,-550.11"/>
<polygon fill="black" stroke="black" points="192.72,-550.2 189.51,-540.1 185.73,-550 192.72,-550.2"/>
</g>
<!-- digraph&#45;&gt;sgraph -->
<g id="edge17" class="edge">
<title>digraph&#45;&gt;sgraph</title>
<path fill="none" stroke="black" d="M285,-719.7C285,-711.98 285,-702.71 285,-694.11"/>
<polygon fill="black" stroke="black" points="288.5,-694.1 285,-684.1 281.5,-694.1 288.5,-694.1"/>
</g>
<!-- digraph&#45;&gt;mgraph -->
<g id="edge18" class="edge">
<title>digraph&#45;&gt;mgraph</title>
<path fill="none" stroke="black" d="M313.13,-723.64C367.22,-697.95 485.75,-641.66 546.49,-612.81"/>
<polygon fill="black" stroke="black" points="548.2,-615.88 555.73,-608.43 545.19,-609.56 548.2,-615.88"/>
</g>
<!-- helly -->
<g id="node13" class="node">
<title>helly</title>
<g id="a_node13"><a xlink:href="./docs/current/GraphTheory.helly.html" xlink:title="helly">
<ellipse fill="orange" stroke="orange" cx="366" cy="-594" rx="32.5" ry="18"/>
<text text-anchor="middle" x="366" y="-590.3" font-family="Times-Roman" font-size="14.00">helly</text>
</a>
</g>
</g>
<!-- sgraph&#45;&gt;helly -->
<g id="edge19" class="edge">
<title>sgraph&#45;&gt;helly</title>
<path fill="none" stroke="black" d="M302.98,-649.46C314.29,-639.68 329.05,-626.93 341.44,-616.22"/>
<polygon fill="black" stroke="black" points="343.9,-618.72 349.18,-609.54 339.33,-613.43 343.9,-618.72"/>
</g>
<!-- connectivity -->
<g id="node16" class="node">
<title>connectivity</title>
<g id="a_node16"><a xlink:href="./docs/current/GraphTheory.connectivity.html" xlink:title="connectivity">
<ellipse fill="orange" stroke="orange" cx="400" cy="-522" rx="65.79" ry="18"/>
<text text-anchor="middle" x="400" y="-518.3" font-family="Times-Roman" font-size="14.00">connectivity</text>
</a>
</g>
</g>
<!-- sgraph&#45;&gt;connectivity -->
<g id="edge20" class="edge">
<title>sgraph&#45;&gt;connectivity</title>
<path fill="none" stroke="black" d="M324.46,-659.5C352.98,-653.24 389.6,-639.97 408,-612 420.07,-593.65 416.35,-568.38 410.6,-549.46"/>
<polygon fill="black" stroke="black" points="413.91,-548.3 407.39,-539.94 407.27,-550.54 413.91,-548.3"/>
</g>
<!-- dom -->
<g id="node19" class="node">
<title>dom</title>
<g id="a_node19"><a xlink:href="./docs/current/GraphTheory.dom.html" xlink:title="dom">
<ellipse fill="orange" stroke="orange" cx="285" cy="-594" rx="30.59" ry="18"/>
<text text-anchor="middle" x="285" y="-590.3" font-family="Times-Roman" font-size="14.00">dom</text>
</a>
</g>
</g>
<!-- sgraph&#45;&gt;dom -->
<g id="edge21" class="edge">
<title>sgraph&#45;&gt;dom</title>
<path fill="none" stroke="black" d="M285,-647.7C285,-639.98 285,-630.71 285,-622.11"/>
<polygon fill="black" stroke="black" points="288.5,-622.1 285,-612.1 281.5,-622.1 288.5,-622.1"/>
</g>
<!-- hcycle -->
<g id="node40" class="node">
<title>hcycle</title>
<g id="a_node40"><a xlink:href="./docs/current/GraphTheory.hcycle.html" xlink:title="hcycle">
<ellipse fill="green" stroke="green" cx="82" cy="-594" rx="39.79" ry="18"/>
<text text-anchor="middle" x="82" y="-590.3" font-family="Times-Roman" font-size="14.00">hcycle</text>
</a>
</g>
</g>
<!-- sgraph&#45;&gt;hcycle -->
<g id="edge22" class="edge">
<title>sgraph&#45;&gt;hcycle</title>
<path fill="none" stroke="black" d="M252.9,-654.14C221.53,-643.5 172.44,-626.77 130,-612 127.3,-611.06 124.52,-610.09 121.71,-609.1"/>
<polygon fill="black" stroke="black" points="122.79,-605.77 112.2,-605.75 120.47,-612.37 122.79,-605.77"/>
</g>
<!-- treewidth -->
<g id="node14" class="node">
<title>treewidth</title>
<g id="a_node14"><a xlink:href="./docs/current/GraphTheory.treewidth.html" xlink:title="treewidth">
<ellipse fill="orange" stroke="orange" cx="306" cy="-450" rx="53.5" ry="18"/>
<text text-anchor="middle" x="306" y="-446.3" font-family="Times-Roman" font-size="14.00">treewidth</text>
</a>
</g>
</g>
<!-- minor -->
<g id="node15" class="node">
<title>minor</title>
<g id="a_node15"><a xlink:href="./docs/current/GraphTheory.minor.html" xlink:title="minor">
<ellipse fill="orange" stroke="orange" cx="269" cy="-378" rx="37.09" ry="18"/>
<text text-anchor="middle" x="269" y="-374.3" font-family="Times-Roman" font-size="14.00">minor</text>
</a>
</g>
</g>
<!-- treewidth&#45;&gt;minor -->
<g id="edge23" class="edge">
<title>treewidth&#45;&gt;minor</title>
<path fill="none" stroke="black" d="M297.04,-432.05C292.73,-423.89 287.45,-413.91 282.65,-404.82"/>
<polygon fill="black" stroke="black" points="285.64,-402.99 277.87,-395.79 279.45,-406.27 285.64,-402.99"/>
</g>
<!-- excluded -->
<g id="node17" class="node">
<title>excluded</title>
<g id="a_node17"><a xlink:href="./docs/current/GraphTheory.excluded.html" xlink:title="excluded">
<ellipse fill="orange" stroke="orange" cx="270" cy="-306" rx="52" ry="18"/>
<text text-anchor="middle" x="270" y="-302.3" font-family="Times-Roman" font-size="14.00">excluded</text>
</a>
</g>
</g>
<!-- minor&#45;&gt;excluded -->
<g id="edge24" class="edge">
<title>minor&#45;&gt;excluded</title>
<path fill="none" stroke="black" d="M269.25,-359.7C269.36,-351.98 269.49,-342.71 269.61,-334.11"/>
<polygon fill="black" stroke="black" points="273.11,-334.15 269.76,-324.1 266.11,-334.05 273.11,-334.15"/>
</g>
<!-- skeleton -->
<g id="node25" class="node">
<title>skeleton</title>
<g id="a_node25"><a xlink:href="./docs/current/GraphTheory.skeleton.html" xlink:title="skeleton">
<ellipse fill="red" stroke="red" cx="472" cy="-306" rx="48.19" ry="18"/>
<text text-anchor="middle" x="472" y="-302.3" font-family="Times-Roman" font-size="14.00">skeleton</text>
</a>
</g>
</g>
<!-- minor&#45;&gt;skeleton -->
<g id="edge25" class="edge">
<title>minor&#45;&gt;skeleton</title>
<path fill="none" stroke="black" d="M297.66,-366.26C303.4,-364.16 309.38,-361.99 315,-360 352.69,-346.68 395.72,-332.2 427.19,-321.75"/>
<polygon fill="black" stroke="black" points="428.59,-324.97 436.98,-318.5 426.39,-318.33 428.59,-324.97"/>
</g>
<!-- smerge -->
<g id="node41" class="node">
<title>smerge</title>
<g id="a_node41"><a xlink:href="./docs/current/GraphTheory.smerge.html" xlink:title="smerge">
<ellipse fill="green" stroke="green" cx="155" cy="-306" rx="45" ry="18"/>
<text text-anchor="middle" x="155" y="-302.3" font-family="Times-Roman" font-size="14.00">smerge</text>
</a>
</g>
</g>
<!-- minor&#45;&gt;smerge -->
<g id="edge26" class="edge">
<title>minor&#45;&gt;smerge</title>
<path fill="none" stroke="black" d="M247.02,-363.5C230.04,-353.08 206.29,-338.49 187.17,-326.75"/>
<polygon fill="black" stroke="black" points="188.84,-323.67 178.48,-321.42 185.17,-329.63 188.84,-323.67"/>
</g>
<!-- connectivity&#45;&gt;treewidth -->
<g id="edge27" class="edge">
<title>connectivity&#45;&gt;treewidth</title>
<path fill="none" stroke="black" d="M378.2,-504.76C365.44,-495.27 349.17,-483.15 335.31,-472.82"/>
<polygon fill="black" stroke="black" points="337.15,-469.83 327.04,-466.67 332.97,-475.45 337.15,-469.83"/>
</g>
<!-- checkpoint -->
<g id="node18" class="node">
<title>checkpoint</title>
<g id="a_node18"><a xlink:href="./docs/current/GraphTheory.checkpoint.html" xlink:title="checkpoint">
<ellipse fill="orange" stroke="orange" cx="384" cy="-378" rx="60" ry="18"/>
<text text-anchor="middle" x="384" y="-374.3" font-family="Times-Roman" font-size="14.00">checkpoint</text>
</a>
</g>
</g>
<!-- connectivity&#45;&gt;checkpoint -->
<g id="edge28" class="edge">
<title>connectivity&#45;&gt;checkpoint</title>
<path fill="none" stroke="black" d="M398.07,-503.87C395.34,-479.67 390.33,-435.21 387.09,-406.39"/>
<polygon fill="black" stroke="black" points="390.53,-405.73 385.94,-396.19 383.58,-406.52 390.53,-405.73"/>
</g>
<!-- cp_minor -->
<g id="node27" class="node">
<title>cp_minor</title>
<g id="a_node27"><a xlink:href="./docs/current/GraphTheory.cp_minor.html" xlink:title="cp_minor">
<ellipse fill="red" stroke="red" cx="272" cy="-234" rx="52" ry="18"/>
<text text-anchor="middle" x="272" y="-230.3" font-family="Times-Roman" font-size="14.00">cp_minor</text>
</a>
</g>
</g>
<!-- excluded&#45;&gt;cp_minor -->
<g id="edge29" class="edge">
<title>excluded&#45;&gt;cp_minor</title>
<path fill="none" stroke="black" d="M270.49,-287.7C270.71,-279.98 270.98,-270.71 271.23,-262.11"/>
<polygon fill="black" stroke="black" points="274.72,-262.2 271.51,-252.1 267.73,-262 274.72,-262.2"/>
</g>
<!-- wagner -->
<g id="node44" class="node">
<title>wagner</title>
<g id="a_node44"><a xlink:href="./docs/current/GraphTheory.wagner.html" xlink:title="wagner">
<ellipse fill="green" stroke="green" cx="151" cy="-90" rx="44.39" ry="18"/>
<text text-anchor="middle" x="151" y="-86.3" font-family="Times-Roman" font-size="14.00">wagner</text>
</a>
</g>
</g>
<!-- excluded&#45;&gt;wagner -->
<g id="edge30" class="edge">
<title>excluded&#45;&gt;wagner</title>
<path fill="none" stroke="black" d="M248.23,-289.65C235.9,-280.02 221,-266.68 211,-252 195.67,-229.49 171.68,-157.18 159.19,-117.56"/>
<polygon fill="black" stroke="black" points="162.53,-116.51 156.2,-108.01 155.85,-118.6 162.53,-116.51"/>
</g>
<!-- checkpoint&#45;&gt;skeleton -->
<g id="edge31" class="edge">
<title>checkpoint&#45;&gt;skeleton</title>
<path fill="none" stroke="black" d="M404.41,-360.76C416.24,-351.36 431.3,-339.38 444.2,-329.12"/>
<polygon fill="black" stroke="black" points="446.66,-331.63 452.31,-322.67 442.3,-326.15 446.66,-331.63"/>
</g>
<!-- checkpoint&#45;&gt;cp_minor -->
<g id="edge32" class="edge">
<title>checkpoint&#45;&gt;cp_minor</title>
<path fill="none" stroke="black" d="M375.81,-359.95C366.41,-341.27 349.84,-310.92 331,-288 321.87,-276.9 310.38,-266.04 299.97,-257.07"/>
<polygon fill="black" stroke="black" points="302.18,-254.35 292.27,-250.6 297.68,-259.71 302.18,-254.35"/>
</g>
<!-- dom&#45;&gt;coloring -->
<g id="edge33" class="edge">
<title>dom&#45;&gt;coloring</title>
<path fill="none" stroke="black" d="M266.68,-579.5C253.22,-569.58 234.64,-555.89 219.15,-544.48"/>
<polygon fill="black" stroke="black" points="221.03,-541.52 210.91,-538.41 216.88,-547.15 221.03,-541.52"/>
</g>
<!-- wpgt -->
<g id="node21" class="node">
<title>wpgt</title>
<g id="a_node21"><a xlink:href="./docs/current/GraphTheory.wpgt.html" xlink:title="wpgt">
<ellipse fill="orange" stroke="orange" cx="190" cy="-450" rx="33.29" ry="18"/>
<text text-anchor="middle" x="190" y="-446.3" font-family="Times-Roman" font-size="14.00">wpgt</text>
</a>
</g>
</g>
<!-- coloring&#45;&gt;wpgt -->
<g id="edge34" class="edge">
<title>coloring&#45;&gt;wpgt</title>
<path fill="none" stroke="black" d="M190,-503.7C190,-495.98 190,-486.71 190,-478.11"/>
<polygon fill="black" stroke="black" points="193.5,-478.1 190,-468.1 186.5,-478.1 193.5,-478.1"/>
</g>
<!-- ptt -->
<g id="node22" class="node">
<title>ptt</title>
<g id="a_node22"><a xlink:href="./docs/current/GraphTheory.ptt.html" xlink:title="ptt">
<ellipse fill="#cd00cd" stroke="#cd00cd" cx="692" cy="-594" rx="27" ry="18"/>
<text text-anchor="middle" x="692" y="-590.3" font-family="Times-Roman" font-size="14.00">ptt</text>
</a>
</g>
</g>
<!-- mgraph2 -->
<g id="node24" class="node">
<title>mgraph2</title>
<g id="a_node24"><a xlink:href="./docs/current/GraphTheory.mgraph2.html" xlink:title="mgraph2">
<ellipse fill="#cd00cd" stroke="#cd00cd" cx="590" cy="-522" rx="52" ry="18"/>
<text text-anchor="middle" x="590" y="-518.3" font-family="Times-Roman" font-size="14.00">mgraph2</text>
</a>
</g>
</g>
<!-- ptt&#45;&gt;mgraph2 -->
<g id="edge35" class="edge">
<title>ptt&#45;&gt;mgraph2</title>
<path fill="none" stroke="black" d="M673.76,-580.49C659.13,-570.44 638.24,-556.11 620.99,-544.27"/>
<polygon fill="black" stroke="black" points="622.57,-541.11 612.35,-538.34 618.61,-546.88 622.57,-541.11"/>
</g>
<!-- mgraph&#45;&gt;connectivity -->
<g id="edge36" class="edge">
<title>mgraph&#45;&gt;connectivity</title>
<path fill="none" stroke="black" d="M551.95,-580.81C522.71,-569.68 479.16,-553.12 446.17,-540.57"/>
<polygon fill="black" stroke="black" points="447.33,-537.26 436.74,-536.98 444.84,-543.8 447.33,-537.26"/>
</g>
<!-- mgraph&#45;&gt;mgraph2 -->
<g id="edge37" class="edge">
<title>mgraph&#45;&gt;mgraph2</title>
<path fill="none" stroke="black" d="M585.48,-575.7C586.14,-567.98 586.94,-558.71 587.68,-550.11"/>
<polygon fill="black" stroke="black" points="591.17,-550.37 588.53,-540.1 584.19,-549.77 591.17,-550.37"/>
</g>
<!-- mgraph2&#45;&gt;skeleton -->
<g id="edge38" class="edge">
<title>mgraph2&#45;&gt;skeleton</title>
<path fill="none" stroke="black" d="M568.88,-505.4C556.54,-495.59 541.25,-482.14 530,-468 507.35,-439.52 503.59,-430.14 491,-396 483.58,-375.9 478.69,-352.12 475.73,-334.19"/>
<polygon fill="black" stroke="black" points="479.16,-333.48 474.17,-324.14 472.25,-334.56 479.16,-333.48"/>
</g>
<!-- rewriting -->
<g id="node33" class="node">
<title>rewriting</title>
<g id="a_node33"><a xlink:href="./docs/current/GraphTheory.rewriting.html" xlink:title="rewriting">
<ellipse fill="blueviolet" stroke="blueviolet" cx="590" cy="-450" rx="50.89" ry="18"/>
<text text-anchor="middle" x="590" y="-446.3" font-family="Times-Roman" font-size="14.00">rewriting</text>
</a>
</g>
</g>
<!-- mgraph2&#45;&gt;rewriting -->
<g id="edge39" class="edge">
<title>mgraph2&#45;&gt;rewriting</title>
<path fill="none" stroke="black" d="M590,-503.7C590,-495.98 590,-486.71 590,-478.11"/>
<polygon fill="black" stroke="black" points="593.5,-478.1 590,-468.1 586.5,-478.1 593.5,-478.1"/>
</g>
<!-- mgraph2_tw2 -->
<g id="node26" class="node">
<title>mgraph2_tw2</title>
<g id="a_node26"><a xlink:href="./docs/current/GraphTheory.mgraph2_tw2.html" xlink:title="mgraph2_tw2">
<ellipse fill="red" stroke="red" cx="547" cy="-162" rx="73.5" ry="18"/>
<text text-anchor="middle" x="547" y="-158.3" font-family="Times-Roman" font-size="14.00">mgraph2_tw2</text>
</a>
</g>
</g>
<!-- skeleton&#45;&gt;mgraph2_tw2 -->
<g id="edge40" class="edge">
<title>skeleton&#45;&gt;mgraph2_tw2</title>
<path fill="none" stroke="black" d="M480.9,-288.15C493.8,-263.73 517.81,-218.26 533.07,-189.38"/>
<polygon fill="black" stroke="black" points="536.3,-190.74 537.88,-180.27 530.11,-187.48 536.3,-190.74"/>
</g>
<!-- skeleton&#45;&gt;extraction_def -->
<g id="edge41" class="edge">
<title>skeleton&#45;&gt;extraction_def</title>
<path fill="none" stroke="black" d="M471.91,-287.89C471.04,-268.88 467.3,-237.99 453,-216 444.68,-203.2 432.1,-192.46 419.73,-184.07"/>
<polygon fill="black" stroke="black" points="421.55,-181.08 411.24,-178.64 417.78,-186.98 421.55,-181.08"/>
</g>
<!-- extraction_top -->
<g id="node30" class="node">
<title>extraction_top</title>
<g id="a_node30"><a xlink:href="./docs/current/GraphTheory.extraction_top.html" xlink:title="extraction_top">
<ellipse fill="red" stroke="red" cx="463" cy="-18" rx="75.5" ry="18"/>
<text text-anchor="middle" x="463" y="-14.3" font-family="Times-Roman" font-size="14.00">extraction_top</text>
</a>
</g>
</g>
<!-- mgraph2_tw2&#45;&gt;extraction_top -->
<g id="edge42" class="edge">
<title>mgraph2_tw2&#45;&gt;extraction_top</title>
<path fill="none" stroke="black" d="M537.03,-144.15C522.52,-119.63 495.46,-73.87 478.38,-45"/>
<polygon fill="black" stroke="black" points="481.32,-43.09 473.21,-36.27 475.29,-46.66 481.32,-43.09"/>
</g>
<!-- cp_minor&#45;&gt;extraction_def -->
<g id="edge43" class="edge">
<title>cp_minor&#45;&gt;extraction_def</title>
<path fill="none" stroke="black" d="M295.43,-217.81C310.3,-208.18 329.77,-195.55 346.29,-184.85"/>
<polygon fill="black" stroke="black" points="348.62,-187.51 355.11,-179.13 344.81,-181.64 348.62,-187.51"/>
</g>
<!-- extraction_iso -->
<g id="node29" class="node">
<title>extraction_iso</title>
<g id="a_node29"><a xlink:href="./docs/current/GraphTheory.extraction_iso.html" xlink:title="extraction_iso">
<ellipse fill="red" stroke="red" cx="396" cy="-90" rx="73.5" ry="18"/>
<text text-anchor="middle" x="396" y="-86.3" font-family="Times-Roman" font-size="14.00">extraction_iso</text>
</a>
</g>
</g>
<!-- extraction_def&#45;&gt;extraction_iso -->
<g id="edge44" class="edge">
<title>extraction_def&#45;&gt;extraction_iso</title>
<path fill="none" stroke="black" d="M383.96,-143.7C385.72,-135.98 387.84,-126.71 389.8,-118.11"/>
<polygon fill="black" stroke="black" points="393.27,-118.63 392.09,-108.1 386.45,-117.07 393.27,-118.63"/>
</g>
<!-- extraction_iso&#45;&gt;extraction_top -->
<g id="edge45" class="edge">
<title>extraction_iso&#45;&gt;extraction_top</title>
<path fill="none" stroke="black" d="M411.88,-72.41C420.18,-63.73 430.51,-52.95 439.7,-43.34"/>
<polygon fill="black" stroke="black" points="442.38,-45.6 446.77,-35.96 437.33,-40.76 442.38,-45.6"/>
</g>
<!-- structures&#45;&gt;mgraph -->
<g id="edge46" class="edge">
<title>structures&#45;&gt;mgraph</title>
<path fill="none" stroke="black" d="M706.35,-720.78C695.2,-710.41 680.58,-696.6 668,-684 646.52,-662.49 622.81,-637.22 606.07,-619.11"/>
<polygon fill="black" stroke="black" points="608.26,-616.32 598.91,-611.34 603.11,-621.06 608.26,-616.32"/>
</g>
<!-- pttdom -->
<g id="node32" class="node">
<title>pttdom</title>
<g id="a_node32"><a xlink:href="./docs/current/GraphTheory.pttdom.html" xlink:title="pttdom">
<ellipse fill="blueviolet" stroke="blueviolet" cx="721" cy="-666" rx="43.59" ry="18"/>
<text text-anchor="middle" x="721" y="-662.3" font-family="Times-Roman" font-size="14.00">pttdom</text>
</a>
</g>
</g>
<!-- structures&#45;&gt;pttdom -->
<g id="edge47" class="edge">
<title>structures&#45;&gt;pttdom</title>
<path fill="none" stroke="black" d="M723.26,-719.7C722.93,-711.98 722.53,-702.71 722.16,-694.11"/>
<polygon fill="black" stroke="black" points="725.66,-693.95 721.73,-684.1 718.66,-694.25 725.66,-693.95"/>
</g>
<!-- pttdom&#45;&gt;ptt -->
<g id="edge48" class="edge">
<title>pttdom&#45;&gt;ptt</title>
<path fill="none" stroke="black" d="M713.98,-648.05C710.63,-639.97 706.55,-630.12 702.82,-621.11"/>
<polygon fill="black" stroke="black" points="706.02,-619.69 698.96,-611.79 699.55,-622.37 706.02,-619.69"/>
</g>
<!-- reduction -->
<g id="node34" class="node">
<title>reduction</title>
<g id="a_node34"><a xlink:href="./docs/current/GraphTheory.reduction.html" xlink:title="reduction">
<ellipse fill="blueviolet" stroke="blueviolet" cx="746" cy="-378" rx="53.5" ry="18"/>
<text text-anchor="middle" x="746" y="-374.3" font-family="Times-Roman" font-size="14.00">reduction</text>
</a>
</g>
</g>
<!-- rewriting&#45;&gt;reduction -->
<g id="edge49" class="edge">
<title>rewriting&#45;&gt;reduction</title>
<path fill="none" stroke="black" d="M620.08,-435.5C644.44,-424.57 679,-409.07 705.75,-397.06"/>
<polygon fill="black" stroke="black" points="707.52,-400.1 715.21,-392.81 704.66,-393.71 707.52,-400.1"/>
</g>
<!-- rewriting&#45;&gt;open_confluence -->
<g id="edge50" class="edge">
<title>rewriting&#45;&gt;open_confluence</title>
<path fill="none" stroke="black" d="M589.26,-431.7C588.93,-423.98 588.53,-414.71 588.16,-406.11"/>
<polygon fill="black" stroke="black" points="591.66,-405.95 587.73,-396.1 584.66,-406.25 591.66,-405.95"/>
</g>
<!-- completeness -->
<g id="node37" class="node">
<title>completeness</title>
<g id="a_node37"><a xlink:href="./docs/current/GraphTheory.completeness.html" xlink:title="completeness">
<ellipse fill="blueviolet" stroke="blueviolet" cx="670" cy="-234" rx="73.5" ry="18"/>
<text text-anchor="middle" x="670" y="-230.3" font-family="Times-Roman" font-size="14.00">completeness</text>
</a>
</g>
</g>
<!-- reduction&#45;&gt;completeness -->
<g id="edge51" class="edge">
<title>reduction&#45;&gt;completeness</title>
<path fill="none" stroke="black" d="M736.98,-360.15C723.91,-335.73 699.58,-290.26 684.12,-261.38"/>
<polygon fill="black" stroke="black" points="687.05,-259.43 679.24,-252.27 680.87,-262.74 687.05,-259.43"/>
</g>
<!-- transfer -->
<g id="node36" class="node">
<title>transfer</title>
<g id="a_node36"><a xlink:href="./docs/current/GraphTheory.transfer.html" xlink:title="transfer">
<ellipse fill="blueviolet" stroke="blueviolet" cx="608" cy="-306" rx="47" ry="18"/>
<text text-anchor="middle" x="608" y="-302.3" font-family="Times-Roman" font-size="14.00">transfer</text>
</a>
</g>
</g>
<!-- open_confluence&#45;&gt;transfer -->
<g id="edge52" class="edge">
<title>open_confluence&#45;&gt;transfer</title>
<path fill="none" stroke="black" d="M592.19,-359.7C594.53,-351.9 597.35,-342.51 599.95,-333.83"/>
<polygon fill="black" stroke="black" points="603.35,-334.69 602.87,-324.1 596.64,-332.68 603.35,-334.69"/>
</g>
<!-- transfer&#45;&gt;completeness -->
<g id="edge53" class="edge">
<title>transfer&#45;&gt;completeness</title>
<path fill="none" stroke="black" d="M622.38,-288.76C629.98,-280.18 639.48,-269.46 647.98,-259.86"/>
<polygon fill="black" stroke="black" points="650.82,-261.93 654.83,-252.12 645.58,-257.29 650.82,-261.93"/>
</g>
<!-- hmap_ops&#45;&gt;hcycle -->
<g id="edge54" class="edge">
<title>hmap_ops&#45;&gt;hcycle</title>
<path fill="none" stroke="black" d="M118.05,-719.87C111.04,-695.56 98.12,-650.82 89.8,-622.01"/>
<polygon fill="black" stroke="black" points="93.1,-620.83 86.96,-612.19 86.37,-622.77 93.1,-620.83"/>
</g>
<!-- arc&#45;&gt;smerge -->
<g id="edge55" class="edge">
<title>arc&#45;&gt;smerge</title>
<path fill="none" stroke="black" d="M24.43,-648C20.64,-621.4 14,-568.3 14,-523 14,-523 14,-523 14,-449 14,-390.38 75.26,-347.34 117.02,-324.81"/>
<polygon fill="black" stroke="black" points="118.88,-327.79 126.13,-320.06 115.64,-321.59 118.88,-327.79"/>
</g>
<!-- embedding -->
<g id="node42" class="node">
<title>embedding</title>
<g id="a_node42"><a xlink:href="./docs/current/GraphTheory.embedding.html" xlink:title="embedding">
<ellipse fill="green" stroke="green" cx="102" cy="-234" rx="61.99" ry="18"/>
<text text-anchor="middle" x="102" y="-230.3" font-family="Times-Roman" font-size="14.00">embedding</text>
</a>
</g>
</g>
<!-- hcycle&#45;&gt;embedding -->
<g id="edge56" class="edge">
<title>hcycle&#45;&gt;embedding</title>
<path fill="none" stroke="black" d="M82,-575.95C82,-549.29 82,-496.11 82,-451 82,-451 82,-451 82,-377 82,-336.82 89.95,-290.87 95.82,-262.39"/>
<polygon fill="black" stroke="black" points="99.3,-262.89 97.95,-252.38 92.45,-261.43 99.3,-262.89"/>
</g>
<!-- smerge&#45;&gt;embedding -->
<g id="edge57" class="edge">
<title>smerge&#45;&gt;embedding</title>
<path fill="none" stroke="black" d="M142.44,-288.41C136.07,-279.99 128.19,-269.58 121.08,-260.2"/>
<polygon fill="black" stroke="black" points="123.67,-257.82 114.84,-251.96 118.08,-262.04 123.67,-257.82"/>
</g>
<!-- K4plane -->
<g id="node43" class="node">
<title>K4plane</title>
<g id="a_node43"><a xlink:href="./docs/current/GraphTheory.K4plane.html" xlink:title="K4plane">
<ellipse fill="green" stroke="green" cx="109" cy="-162" rx="47.5" ry="18"/>
<text text-anchor="middle" x="109" y="-158.3" font-family="Times-Roman" font-size="14.00">K4plane</text>
</a>
</g>
</g>
<!-- embedding&#45;&gt;K4plane -->
<g id="edge58" class="edge">
<title>embedding&#45;&gt;K4plane</title>
<path fill="none" stroke="black" d="M103.73,-215.7C104.5,-207.98 105.43,-198.71 106.29,-190.11"/>
<polygon fill="black" stroke="black" points="109.78,-190.4 107.29,-180.1 102.81,-189.71 109.78,-190.4"/>
</g>
<!-- K4plane&#45;&gt;wagner -->
<g id="edge59" class="edge">
<title>K4plane&#45;&gt;wagner</title>
<path fill="none" stroke="black" d="M119.17,-144.05C124.12,-135.8 130.18,-125.7 135.68,-116.54"/>
<polygon fill="black" stroke="black" points="138.78,-118.16 140.93,-107.79 132.78,-114.56 138.78,-118.16"/>
</g>
</g>
</svg>
