<?xml version="1.0" encoding="UTF-8" standalone="no"?>
<!DOCTYPE svg PUBLIC "-//W3C//DTD SVG 1.1//EN"
 "http://www.w3.org/Graphics/SVG/1.1/DTD/svg11.dtd">
<!-- Generated by graphviz version 2.40.1 (0)
 -->
<!-- Title: dependencies Pages: 1 -->
<svg width="801pt" height="980pt"
 viewBox="0.00 0.00 801.09 980.00" xmlns="http://www.w3.org/2000/svg" xmlns:xlink="http://www.w3.org/1999/xlink">
<g id="graph0" class="graph" transform="scale(1 1) rotate(0) translate(4 976)">
<title>dependencies</title>
<polygon fill="#ffffff" stroke="transparent" points="-4,4 -4,-976 797.0923,-976 797.0923,4 -4,4"/>
<!-- hmap_ops -->
<g id="node1" class="node">
<title>hmap_ops</title>
<g id="a_node1"><a xlink:href="./current/GraphTheory.hmap_ops.html" xlink:title="hmap_ops">
<ellipse fill="#ffa500" stroke="#ffa500" cx="681.0923" cy="-666" rx="57.3905" ry="18"/>
<text text-anchor="middle" x="681.0923" y="-662.3" font-family="Times,serif" font-size="14.00" fill="#000000">hmap_ops</text>
</a>
</g>
</g>
<!-- hcycle -->
<g id="node3" class="node">
<title>hcycle</title>
<g id="a_node3"><a xlink:href="./current/GraphTheory.hcycle.html" xlink:title="hcycle">
<ellipse fill="#ffa500" stroke="#ffa500" cx="686.0923" cy="-594" rx="40.5" ry="18"/>
<text text-anchor="middle" x="686.0923" y="-590.3" font-family="Times,serif" font-size="14.00" fill="#000000">hcycle</text>
</a>
</g>
</g>
<!-- hmap_ops&#45;&gt;hcycle -->
<g id="edge1" class="edge">
<title>hmap_ops&#45;&gt;hcycle</title>
<path fill="none" stroke="#000000" d="M682.354,-647.8314C682.8887,-640.131 683.5246,-630.9743 684.1189,-622.4166"/>
<polygon fill="#000000" stroke="#000000" points="687.6123,-622.6317 684.8136,-612.4133 680.6291,-622.1467 687.6123,-622.6317"/>
</g>
<!-- smerge -->
<g id="node2" class="node">
<title>smerge</title>
<g id="a_node2"><a xlink:href="./current/GraphTheory.smerge.html" xlink:title="smerge">
<ellipse fill="#ffa500" stroke="#ffa500" cx="637.0923" cy="-306" rx="45.5" ry="18"/>
<text text-anchor="middle" x="637.0923" y="-302.3" font-family="Times,serif" font-size="14.00" fill="#000000">smerge</text>
</a>
</g>
</g>
<!-- embedding -->
<g id="node4" class="node">
<title>embedding</title>
<g id="a_node4"><a xlink:href="./current/GraphTheory.embedding.html" xlink:title="embedding">
<ellipse fill="#ffa500" stroke="#ffa500" cx="711.0923" cy="-234" rx="62.5" ry="18"/>
<text text-anchor="middle" x="711.0923" y="-230.3" font-family="Times,serif" font-size="14.00" fill="#000000">embedding</text>
</a>
</g>
</g>
<!-- smerge&#45;&gt;embedding -->
<g id="edge2" class="edge">
<title>smerge&#45;&gt;embedding</title>
<path fill="none" stroke="#000000" d="M654.2554,-289.3008C663.6692,-280.1414 675.5153,-268.6154 685.9531,-258.4597"/>
<polygon fill="#000000" stroke="#000000" points="688.5232,-260.8425 693.2497,-251.3603 683.6417,-255.8254 688.5232,-260.8425"/>
</g>
<!-- hcycle&#45;&gt;embedding -->
<g id="edge3" class="edge">
<title>hcycle&#45;&gt;embedding</title>
<path fill="none" stroke="#000000" d="M691.2723,-575.9889C698.5949,-548.8949 711.0923,-495.9269 711.0923,-450 711.0923,-450 711.0923,-450 711.0923,-378 711.0923,-337.876 711.0923,-291.4631 711.0923,-262.4177"/>
<polygon fill="#000000" stroke="#000000" points="714.5924,-262.1853 711.0923,-252.1854 707.5924,-262.1854 714.5924,-262.1853"/>
</g>
<!-- K4plane -->
<g id="node7" class="node">
<title>K4plane</title>
<g id="a_node7"><a xlink:href="./current/GraphTheory.K4plane.html" xlink:title="K4plane">
<ellipse fill="#ffa500" stroke="#ffa500" cx="704.0923" cy="-162" rx="48.9926" ry="18"/>
<text text-anchor="middle" x="704.0923" y="-158.3" font-family="Times,serif" font-size="14.00" fill="#000000">K4plane</text>
</a>
</g>
</g>
<!-- embedding&#45;&gt;K4plane -->
<g id="edge4" class="edge">
<title>embedding&#45;&gt;K4plane</title>
<path fill="none" stroke="#000000" d="M709.3259,-215.8314C708.5772,-208.131 707.687,-198.9743 706.855,-190.4166"/>
<polygon fill="#000000" stroke="#000000" points="710.3338,-190.0276 705.8825,-180.4133 703.3666,-190.7051 710.3338,-190.0276"/>
</g>
<!-- wagner -->
<g id="node5" class="node">
<title>wagner</title>
<g id="a_node5"><a xlink:href="./current/GraphTheory.wagner.html" xlink:title="wagner">
<ellipse fill="#ffa500" stroke="#ffa500" cx="662.0923" cy="-90" rx="45.5" ry="18"/>
<text text-anchor="middle" x="662.0923" y="-86.3" font-family="Times,serif" font-size="14.00" fill="#000000">wagner</text>
</a>
</g>
</g>
<!-- arc -->
<g id="node6" class="node">
<title>arc</title>
<g id="a_node6"><a xlink:href="./current/GraphTheory.arc.html" xlink:title="arc">
<ellipse fill="#ffa500" stroke="#ffa500" cx="766.0923" cy="-522" rx="27" ry="18"/>
<text text-anchor="middle" x="766.0923" y="-518.3" font-family="Times,serif" font-size="14.00" fill="#000000">arc</text>
</a>
</g>
</g>
<!-- arc&#45;&gt;smerge -->
<g id="edge5" class="edge">
<title>arc&#45;&gt;smerge</title>
<path fill="none" stroke="#000000" d="M755.9699,-505.0508C733.5762,-467.5545 679.7013,-377.3454 652.8523,-332.3889"/>
<polygon fill="#000000" stroke="#000000" points="655.8395,-330.5645 647.7071,-323.7737 649.8297,-334.1538 655.8395,-330.5645"/>
</g>
<!-- K4plane&#45;&gt;wagner -->
<g id="edge6" class="edge">
<title>K4plane&#45;&gt;wagner</title>
<path fill="none" stroke="#000000" d="M693.7102,-144.2022C688.8276,-135.832 682.9057,-125.6802 677.513,-116.4356"/>
<polygon fill="#000000" stroke="#000000" points="680.4169,-114.4673 672.3549,-107.593 674.3704,-117.9944 680.4169,-114.4673"/>
</g>
<!-- sgraph -->
<g id="node8" class="node">
<title>sgraph</title>
<g id="a_node8"><a xlink:href="./current/GraphTheory.sgraph.html" xlink:title="sgraph">
<ellipse fill="#ffff00" stroke="#ffff00" cx="563.0923" cy="-666" rx="43" ry="18"/>
<text text-anchor="middle" x="563.0923" y="-662.3" font-family="Times,serif" font-size="14.00" fill="#000000">sgraph</text>
</a>
</g>
</g>
<!-- sgraph&#45;&gt;hcycle -->
<g id="edge7" class="edge">
<title>sgraph&#45;&gt;hcycle</title>
<path fill="none" stroke="#000000" d="M588.28,-651.256C606.892,-640.3611 632.4169,-625.4197 652.7249,-613.5321"/>
<polygon fill="#000000" stroke="#000000" points="654.4966,-616.5507 661.3586,-608.4783 650.9603,-610.5095 654.4966,-616.5507"/>
</g>
<!-- connectivity -->
<g id="node9" class="node">
<title>connectivity</title>
<g id="a_node9"><a xlink:href="./current/GraphTheory.connectivity.html" xlink:title="connectivity">
<ellipse fill="#ffff00" stroke="#ffff00" cx="483.0923" cy="-522" rx="67.6881" ry="18"/>
<text text-anchor="middle" x="483.0923" y="-518.3" font-family="Times,serif" font-size="14.00" fill="#000000">connectivity</text>
</a>
</g>
</g>
<!-- sgraph&#45;&gt;connectivity -->
<g id="edge8" class="edge">
<title>sgraph&#45;&gt;connectivity</title>
<path fill="none" stroke="#000000" d="M578.561,-649.1607C593.8675,-630.3598 613.0138,-599.4914 598.0923,-576 586.1983,-557.2751 565.9007,-544.9284 545.638,-536.8385"/>
<polygon fill="#000000" stroke="#000000" points="546.6406,-533.4779 536.0471,-533.3067 544.2216,-540.0467 546.6406,-533.4779"/>
</g>
<!-- dom -->
<g id="node11" class="node">
<title>dom</title>
<g id="a_node11"><a xlink:href="./current/GraphTheory.dom.html" xlink:title="dom">
<ellipse fill="none" stroke="#000000" cx="558.0923" cy="-594" rx="30.5947" ry="18"/>
<text text-anchor="middle" x="558.0923" y="-590.3" font-family="Times,serif" font-size="14.00" fill="#000000">dom</text>
</a>
</g>
</g>
<!-- sgraph&#45;&gt;dom -->
<g id="edge9" class="edge">
<title>sgraph&#45;&gt;dom</title>
<path fill="none" stroke="#000000" d="M561.8306,-647.8314C561.2958,-640.131 560.6599,-630.9743 560.0656,-622.4166"/>
<polygon fill="#000000" stroke="#000000" points="563.5554,-622.1467 559.371,-612.4133 556.5722,-622.6317 563.5554,-622.1467"/>
</g>
<!-- helly -->
<g id="node12" class="node">
<title>helly</title>
<g id="a_node12"><a xlink:href="./current/GraphTheory.helly.html" xlink:title="helly">
<ellipse fill="none" stroke="#000000" cx="476.0923" cy="-594" rx="33.2948" ry="18"/>
<text text-anchor="middle" x="476.0923" y="-590.3" font-family="Times,serif" font-size="14.00" fill="#000000">helly</text>
</a>
</g>
</g>
<!-- sgraph&#45;&gt;helly -->
<g id="edge10" class="edge">
<title>sgraph&#45;&gt;helly</title>
<path fill="none" stroke="#000000" d="M543.3506,-649.6621C531.2276,-639.6292 515.5532,-626.6573 502.3862,-615.7605"/>
<polygon fill="#000000" stroke="#000000" points="504.5015,-612.9679 494.566,-609.2886 500.0385,-618.3607 504.5015,-612.9679"/>
</g>
<!-- checkpoint -->
<g id="node13" class="node">
<title>checkpoint</title>
<g id="a_node13"><a xlink:href="./current/GraphTheory.checkpoint.html" xlink:title="checkpoint">
<ellipse fill="none" stroke="#000000" cx="419.0923" cy="-378" rx="61.1893" ry="18"/>
<text text-anchor="middle" x="419.0923" y="-374.3" font-family="Times,serif" font-size="14.00" fill="#000000">checkpoint</text>
</a>
</g>
</g>
<!-- connectivity&#45;&gt;checkpoint -->
<g id="edge11" class="edge">
<title>connectivity&#45;&gt;checkpoint</title>
<path fill="none" stroke="#000000" d="M475.116,-504.0535C464.0975,-479.2618 444.1237,-434.3207 431.2424,-405.3378"/>
<polygon fill="#000000" stroke="#000000" points="434.4288,-403.8893 427.169,-396.1727 428.0321,-406.7323 434.4288,-403.8893"/>
</g>
<!-- treewidth -->
<g id="node14" class="node">
<title>treewidth</title>
<g id="a_node14"><a xlink:href="./current/GraphTheory.treewidth.html" xlink:title="treewidth">
<ellipse fill="none" stroke="#000000" cx="531.0923" cy="-450" rx="56" ry="18"/>
<text text-anchor="middle" x="531.0923" y="-446.3" font-family="Times,serif" font-size="14.00" fill="#000000">treewidth</text>
</a>
</g>
</g>
<!-- connectivity&#45;&gt;treewidth -->
<g id="edge12" class="edge">
<title>connectivity&#45;&gt;treewidth</title>
<path fill="none" stroke="#000000" d="M494.9574,-504.2022C500.5537,-495.8079 507.3444,-485.6218 513.5217,-476.3558"/>
<polygon fill="#000000" stroke="#000000" points="516.5624,-478.1045 519.1972,-467.8425 510.738,-474.2216 516.5624,-478.1045"/>
</g>
<!-- preliminaries -->
<g id="node10" class="node">
<title>preliminaries</title>
<g id="a_node10"><a xlink:href="./current/GraphTheory.preliminaries.html" xlink:title="preliminaries">
<ellipse fill="#ffff00" stroke="#ffff00" cx="676.0923" cy="-882" rx="73" ry="18"/>
<text text-anchor="middle" x="676.0923" y="-878.3" font-family="Times,serif" font-size="14.00" fill="#000000">preliminaries</text>
</a>
</g>
</g>
<!-- preliminaries&#45;&gt;arc -->
<g id="edge13" class="edge">
<title>preliminaries&#45;&gt;arc</title>
<path fill="none" stroke="#000000" d="M696.0662,-864.6566C722.5809,-839.596 766.0923,-790.4765 766.0923,-738 766.0923,-738 766.0923,-738 766.0923,-666 766.0923,-625.876 766.0923,-579.4631 766.0923,-550.4177"/>
<polygon fill="#000000" stroke="#000000" points="769.5924,-550.1853 766.0923,-540.1854 762.5924,-550.1854 769.5924,-550.1853"/>
</g>
<!-- bij -->
<g id="node15" class="node">
<title>bij</title>
<g id="a_node15"><a xlink:href="./current/GraphTheory.bij.html" xlink:title="bij">
<ellipse fill="none" stroke="#000000" cx="492.0923" cy="-810" rx="27" ry="18"/>
<text text-anchor="middle" x="492.0923" y="-806.3" font-family="Times,serif" font-size="14.00" fill="#000000">bij</text>
</a>
</g>
</g>
<!-- preliminaries&#45;&gt;bij -->
<g id="edge14" class="edge">
<title>preliminaries&#45;&gt;bij</title>
<path fill="none" stroke="#000000" d="M637.0706,-866.7307C603.8495,-853.7311 556.6476,-835.2608 525.2315,-822.9675"/>
<polygon fill="#000000" stroke="#000000" points="526.2117,-819.5927 515.6239,-819.208 523.6609,-826.1114 526.2117,-819.5927"/>
</g>
<!-- set_tac -->
<g id="node16" class="node">
<title>set_tac</title>
<g id="a_node16"><a xlink:href="./current/GraphTheory.set_tac.html" xlink:title="set_tac">
<ellipse fill="none" stroke="#000000" cx="676.0923" cy="-810" rx="43.5923" ry="18"/>
<text text-anchor="middle" x="676.0923" y="-806.3" font-family="Times,serif" font-size="14.00" fill="#000000">set_tac</text>
</a>
</g>
</g>
<!-- preliminaries&#45;&gt;set_tac -->
<g id="edge15" class="edge">
<title>preliminaries&#45;&gt;set_tac</title>
<path fill="none" stroke="#000000" d="M676.0923,-863.8314C676.0923,-856.131 676.0923,-846.9743 676.0923,-838.4166"/>
<polygon fill="#000000" stroke="#000000" points="679.5924,-838.4132 676.0923,-828.4133 672.5924,-838.4133 679.5924,-838.4132"/>
</g>
<!-- skeleton -->
<g id="node21" class="node">
<title>skeleton</title>
<g id="a_node21"><a xlink:href="./current/GraphTheory.skeleton.html" xlink:title="skeleton">
<ellipse fill="none" stroke="#000000" cx="337.0923" cy="-306" rx="50.0912" ry="18"/>
<text text-anchor="middle" x="337.0923" y="-302.3" font-family="Times,serif" font-size="14.00" fill="#000000">skeleton</text>
</a>
</g>
</g>
<!-- checkpoint&#45;&gt;skeleton -->
<g id="edge35" class="edge">
<title>checkpoint&#45;&gt;skeleton</title>
<path fill="none" stroke="#000000" d="M399.2424,-360.5708C388.6132,-351.2379 375.3725,-339.6119 363.8468,-329.4918"/>
<polygon fill="#000000" stroke="#000000" points="366.0185,-326.7409 356.1948,-322.7729 361.3999,-332.001 366.0185,-326.7409"/>
</g>
<!-- cp_minor -->
<g id="node32" class="node">
<title>cp_minor</title>
<g id="a_node32"><a xlink:href="./current/GraphTheory.cp_minor.html" xlink:title="cp_minor">
<ellipse fill="none" stroke="#000000" cx="419.0923" cy="-234" rx="53.5" ry="18"/>
<text text-anchor="middle" x="419.0923" y="-230.3" font-family="Times,serif" font-size="14.00" fill="#000000">cp_minor</text>
</a>
</g>
</g>
<!-- checkpoint&#45;&gt;cp_minor -->
<g id="edge36" class="edge">
<title>checkpoint&#45;&gt;cp_minor</title>
<path fill="none" stroke="#000000" d="M419.0923,-359.7623C419.0923,-335.201 419.0923,-291.2474 419.0923,-262.3541"/>
<polygon fill="#000000" stroke="#000000" points="422.5924,-262.0896 419.0923,-252.0896 415.5924,-262.0897 422.5924,-262.0896"/>
</g>
<!-- minor -->
<g id="node34" class="node">
<title>minor</title>
<g id="a_node34"><a xlink:href="./current/GraphTheory.minor.html" xlink:title="minor">
<ellipse fill="none" stroke="#000000" cx="537.0923" cy="-378" rx="38.5" ry="18"/>
<text text-anchor="middle" x="537.0923" y="-374.3" font-family="Times,serif" font-size="14.00" fill="#000000">minor</text>
</a>
</g>
</g>
<!-- treewidth&#45;&gt;minor -->
<g id="edge42" class="edge">
<title>treewidth&#45;&gt;minor</title>
<path fill="none" stroke="#000000" d="M532.6063,-431.8314C533.248,-424.131 534.0111,-414.9743 534.7242,-406.4166"/>
<polygon fill="#000000" stroke="#000000" points="538.2152,-406.6694 535.5578,-396.4133 531.2394,-406.088 538.2152,-406.6694"/>
</g>
<!-- bij&#45;&gt;hmap_ops -->
<g id="edge47" class="edge">
<title>bij&#45;&gt;hmap_ops</title>
<path fill="none" stroke="#000000" d="M517.7179,-803.7198C545.097,-796.025 588.6583,-780.8534 619.0923,-756 640.057,-738.8795 656.9093,-712.8922 667.7223,-693.2367"/>
<polygon fill="#000000" stroke="#000000" points="670.9415,-694.6368 672.5369,-684.1628 664.758,-691.3558 670.9415,-694.6368"/>
</g>
<!-- structures -->
<g id="node31" class="node">
<title>structures</title>
<g id="a_node31"><a xlink:href="./current/GraphTheory.structures.html" xlink:title="structures">
<ellipse fill="none" stroke="#000000" cx="265.0923" cy="-738" rx="59.2899" ry="18"/>
<text text-anchor="middle" x="265.0923" y="-734.3" font-family="Times,serif" font-size="14.00" fill="#000000">structures</text>
</a>
</g>
</g>
<!-- bij&#45;&gt;structures -->
<g id="edge48" class="edge">
<title>bij&#45;&gt;structures</title>
<path fill="none" stroke="#000000" d="M467.3672,-802.1577C431.2144,-790.6907 363.1133,-769.0904 315.9794,-754.1404"/>
<polygon fill="#000000" stroke="#000000" points="316.8491,-750.7445 306.2588,-751.0572 314.7327,-757.4169 316.8491,-750.7445"/>
</g>
<!-- digraph -->
<g id="node35" class="node">
<title>digraph</title>
<g id="a_node35"><a xlink:href="./current/GraphTheory.digraph.html" xlink:title="digraph">
<ellipse fill="none" stroke="#000000" cx="563.0923" cy="-738" rx="47" ry="18"/>
<text text-anchor="middle" x="563.0923" y="-734.3" font-family="Times,serif" font-size="14.00" fill="#000000">digraph</text>
</a>
</g>
</g>
<!-- bij&#45;&gt;digraph -->
<g id="edge49" class="edge">
<title>bij&#45;&gt;digraph</title>
<path fill="none" stroke="#000000" d="M507.1495,-794.7307C516.4763,-785.2726 528.6588,-772.9185 539.2732,-762.1545"/>
<polygon fill="#000000" stroke="#000000" points="541.7875,-764.5896 546.3169,-755.0117 536.8032,-759.6745 541.7875,-764.5896"/>
</g>
<!-- finite_quotient -->
<g id="node37" class="node">
<title>finite_quotient</title>
<g id="a_node37"><a xlink:href="./current/GraphTheory.finite_quotient.html" xlink:title="finite_quotient">
<ellipse fill="none" stroke="#000000" cx="420.0923" cy="-738" rx="78" ry="18"/>
<text text-anchor="middle" x="420.0923" y="-734.3" font-family="Times,serif" font-size="14.00" fill="#000000">finite_quotient</text>
</a>
</g>
</g>
<!-- bij&#45;&gt;finite_quotient -->
<g id="edge50" class="edge">
<title>bij&#45;&gt;finite_quotient</title>
<path fill="none" stroke="#000000" d="M476.8229,-794.7307C467.6551,-785.5628 455.7663,-773.674 445.2421,-763.1498"/>
<polygon fill="#000000" stroke="#000000" points="447.4245,-760.3824 437.8785,-755.7862 442.4747,-765.3322 447.4245,-760.3824"/>
</g>
<!-- finmap_plus -->
<g id="node38" class="node">
<title>finmap_plus</title>
<g id="a_node38"><a xlink:href="./current/GraphTheory.finmap_plus.html" xlink:title="finmap_plus">
<ellipse fill="none" stroke="#000000" cx="98.0923" cy="-450" rx="66.5" ry="18"/>
<text text-anchor="middle" x="98.0923" y="-446.3" font-family="Times,serif" font-size="14.00" fill="#000000">finmap_plus</text>
</a>
</g>
</g>
<!-- bij&#45;&gt;finmap_plus -->
<g id="edge51" class="edge">
<title>bij&#45;&gt;finmap_plus</title>
<path fill="none" stroke="#000000" d="M465.3167,-806.2726C396.9473,-796.5906 219.7126,-770.3986 197.0923,-756 155.6865,-729.6439 133.0923,-715.0824 133.0923,-666 133.0923,-666 133.0923,-666 133.0923,-594 133.0923,-552.755 119.3669,-506.697 109.1064,-478.0283"/>
<polygon fill="#000000" stroke="#000000" points="112.2601,-476.4643 105.5149,-468.2941 105.6928,-478.8874 112.2601,-476.4643"/>
</g>
<!-- set_tac&#45;&gt;sgraph -->
<g id="edge52" class="edge">
<title>set_tac&#45;&gt;sgraph</title>
<path fill="none" stroke="#000000" d="M666.5333,-792.2473C656.0428,-773.4624 638.1438,-743.3641 619.0923,-720 610.2697,-709.1803 599.4418,-698.2942 589.6664,-689.1592"/>
<polygon fill="#000000" stroke="#000000" points="591.8504,-686.4135 582.1107,-682.2433 587.124,-691.577 591.8504,-686.4135"/>
</g>
<!-- extraction_top -->
<g id="node17" class="node">
<title>extraction_top</title>
<g id="a_node17"><a xlink:href="./current/GraphTheory.extraction_top.html" xlink:title="extraction_top">
<ellipse fill="none" stroke="#000000" cx="337.0923" cy="-18" rx="77.5" ry="18"/>
<text text-anchor="middle" x="337.0923" y="-14.3" font-family="Times,serif" font-size="14.00" fill="#000000">extraction_top</text>
</a>
</g>
</g>
<!-- extraction_iso -->
<g id="node18" class="node">
<title>extraction_iso</title>
<g id="a_node18"><a xlink:href="./current/GraphTheory.extraction_iso.html" xlink:title="extraction_iso">
<ellipse fill="none" stroke="#000000" cx="422.0923" cy="-90" rx="75.5" ry="18"/>
<text text-anchor="middle" x="422.0923" y="-86.3" font-family="Times,serif" font-size="14.00" fill="#000000">extraction_iso</text>
</a>
</g>
</g>
<!-- extraction_iso&#45;&gt;extraction_top -->
<g id="edge16" class="edge">
<title>extraction_iso&#45;&gt;extraction_top</title>
<path fill="none" stroke="#000000" d="M401.5161,-72.5708C390.7376,-63.4408 377.3684,-52.1163 365.6073,-42.1539"/>
<polygon fill="#000000" stroke="#000000" points="367.6662,-39.3111 357.7735,-35.5182 363.1418,-44.6524 367.6662,-39.3111"/>
</g>
<!-- extraction_def -->
<g id="node19" class="node">
<title>extraction_def</title>
<g id="a_node19"><a xlink:href="./current/GraphTheory.extraction_def.html" xlink:title="extraction_def">
<ellipse fill="none" stroke="#000000" cx="438.0923" cy="-162" rx="77.5" ry="18"/>
<text text-anchor="middle" x="438.0923" y="-158.3" font-family="Times,serif" font-size="14.00" fill="#000000">extraction_def</text>
</a>
</g>
</g>
<!-- extraction_def&#45;&gt;extraction_iso -->
<g id="edge17" class="edge">
<title>extraction_def&#45;&gt;extraction_iso</title>
<path fill="none" stroke="#000000" d="M434.0548,-143.8314C432.3436,-136.131 430.3088,-126.9743 428.4071,-118.4166"/>
<polygon fill="#000000" stroke="#000000" points="431.7701,-117.4159 426.1841,-108.4133 424.9368,-118.9344 431.7701,-117.4159"/>
</g>
<!-- mgraph2_tw2 -->
<g id="node20" class="node">
<title>mgraph2_tw2</title>
<g id="a_node20"><a xlink:href="./current/GraphTheory.mgraph2_tw2.html" xlink:title="mgraph2_tw2">
<ellipse fill="none" stroke="#000000" cx="268.0923" cy="-162" rx="74.9875" ry="18"/>
<text text-anchor="middle" x="268.0923" y="-158.3" font-family="Times,serif" font-size="14.00" fill="#000000">mgraph2_tw2</text>
</a>
</g>
</g>
<!-- mgraph2_tw2&#45;&gt;extraction_top -->
<g id="edge18" class="edge">
<title>mgraph2_tw2&#45;&gt;extraction_top</title>
<path fill="none" stroke="#000000" d="M276.6917,-144.0535C288.571,-119.2618 310.1053,-74.3207 323.9929,-45.3378"/>
<polygon fill="#000000" stroke="#000000" points="327.2196,-46.7033 328.3845,-36.1727 320.9069,-43.6784 327.2196,-46.7033"/>
</g>
<!-- skeleton&#45;&gt;extraction_def -->
<g id="edge19" class="edge">
<title>skeleton&#45;&gt;extraction_def</title>
<path fill="none" stroke="#000000" d="M336.9752,-287.8687C337.6931,-268.4907 341.3423,-237.6412 356.0923,-216 365.2274,-202.597 378.9008,-191.697 392.4766,-183.2911"/>
<polygon fill="#000000" stroke="#000000" points="394.4591,-186.1867 401.3351,-178.1262 390.9333,-180.1395 394.4591,-186.1867"/>
</g>
<!-- skeleton&#45;&gt;mgraph2_tw2 -->
<g id="edge20" class="edge">
<title>skeleton&#45;&gt;mgraph2_tw2</title>
<path fill="none" stroke="#000000" d="M328.4929,-288.0535C316.6135,-263.2618 295.0793,-218.3207 281.1916,-189.3378"/>
<polygon fill="#000000" stroke="#000000" points="284.2776,-187.6784 276.8,-180.1727 277.9649,-190.7033 284.2776,-187.6784"/>
</g>
<!-- ptt -->
<g id="node22" class="node">
<title>ptt</title>
<g id="a_node22"><a xlink:href="./current/GraphTheory.ptt.html" xlink:title="ptt">
<ellipse fill="none" stroke="#000000" cx="276.0923" cy="-594" rx="27" ry="18"/>
<text text-anchor="middle" x="276.0923" y="-590.3" font-family="Times,serif" font-size="14.00" fill="#000000">ptt</text>
</a>
</g>
</g>
<!-- mgraph2 -->
<g id="node23" class="node">
<title>mgraph2</title>
<g id="a_node23"><a xlink:href="./current/GraphTheory.mgraph2.html" xlink:title="mgraph2">
<ellipse fill="none" stroke="#000000" cx="301.0923" cy="-522" rx="52.7911" ry="18"/>
<text text-anchor="middle" x="301.0923" y="-518.3" font-family="Times,serif" font-size="14.00" fill="#000000">mgraph2</text>
</a>
</g>
</g>
<!-- ptt&#45;&gt;mgraph2 -->
<g id="edge21" class="edge">
<title>ptt&#45;&gt;mgraph2</title>
<path fill="none" stroke="#000000" d="M282.272,-576.2022C285.0455,-568.2146 288.3824,-558.6045 291.4712,-549.7087"/>
<polygon fill="#000000" stroke="#000000" points="294.8361,-550.6879 294.8099,-540.0931 288.2234,-548.3918 294.8361,-550.6879"/>
</g>
<!-- mgraph2&#45;&gt;skeleton -->
<g id="edge27" class="edge">
<title>mgraph2&#45;&gt;skeleton</title>
<path fill="none" stroke="#000000" d="M304.0997,-503.9555C310.3732,-466.3144 324.8945,-379.1867 332.4048,-334.1246"/>
<polygon fill="#000000" stroke="#000000" points="335.8764,-334.5844 334.0681,-324.1451 328.9716,-333.4336 335.8764,-334.5844"/>
</g>
<!-- rewriting -->
<g id="node28" class="node">
<title>rewriting</title>
<g id="a_node28"><a xlink:href="./current/GraphTheory.rewriting.html" xlink:title="rewriting">
<ellipse fill="none" stroke="#000000" cx="247.0923" cy="-450" rx="54" ry="18"/>
<text text-anchor="middle" x="247.0923" y="-446.3" font-family="Times,serif" font-size="14.00" fill="#000000">rewriting</text>
</a>
</g>
</g>
<!-- mgraph2&#45;&gt;rewriting -->
<g id="edge28" class="edge">
<title>mgraph2&#45;&gt;rewriting</title>
<path fill="none" stroke="#000000" d="M287.744,-504.2022C281.3355,-495.6576 273.5346,-485.2564 266.4865,-475.859"/>
<polygon fill="#000000" stroke="#000000" points="269.0871,-473.493 260.287,-467.593 263.4871,-477.6931 269.0871,-473.493"/>
</g>
<!-- completeness -->
<g id="node24" class="node">
<title>completeness</title>
<g id="a_node24"><a xlink:href="./current/GraphTheory.completeness.html" xlink:title="completeness">
<ellipse fill="none" stroke="#000000" cx="159.0923" cy="-234" rx="74.187" ry="18"/>
<text text-anchor="middle" x="159.0923" y="-230.3" font-family="Times,serif" font-size="14.00" fill="#000000">completeness</text>
</a>
</g>
</g>
<!-- transfer -->
<g id="node25" class="node">
<title>transfer</title>
<g id="a_node25"><a xlink:href="./current/GraphTheory.transfer.html" xlink:title="transfer">
<ellipse fill="none" stroke="#000000" cx="117.0923" cy="-306" rx="48.1917" ry="18"/>
<text text-anchor="middle" x="117.0923" y="-302.3" font-family="Times,serif" font-size="14.00" fill="#000000">transfer</text>
</a>
</g>
</g>
<!-- transfer&#45;&gt;completeness -->
<g id="edge22" class="edge">
<title>transfer&#45;&gt;completeness</title>
<path fill="none" stroke="#000000" d="M127.4743,-288.2022C132.3205,-279.8944 138.1905,-269.8316 143.5507,-260.6427"/>
<polygon fill="#000000" stroke="#000000" points="146.6686,-262.2439 148.6841,-251.8425 140.6221,-258.7168 146.6686,-262.2439"/>
</g>
<!-- open_confluence -->
<g id="node26" class="node">
<title>open_confluence</title>
<g id="a_node26"><a xlink:href="./current/GraphTheory.open_confluence.html" xlink:title="open_confluence">
<ellipse fill="none" stroke="#000000" cx="87.0923" cy="-378" rx="87.1846" ry="18"/>
<text text-anchor="middle" x="87.0923" y="-374.3" font-family="Times,serif" font-size="14.00" fill="#000000">open_confluence</text>
</a>
</g>
</g>
<!-- open_confluence&#45;&gt;transfer -->
<g id="edge23" class="edge">
<title>open_confluence&#45;&gt;transfer</title>
<path fill="none" stroke="#000000" d="M94.6625,-359.8314C98.0278,-351.7547 102.0606,-342.0761 105.7728,-333.1668"/>
<polygon fill="#000000" stroke="#000000" points="109.0129,-334.4904 109.6284,-323.9134 102.5514,-331.798 109.0129,-334.4904"/>
</g>
<!-- reduction -->
<g id="node27" class="node">
<title>reduction</title>
<g id="a_node27"><a xlink:href="./current/GraphTheory.reduction.html" xlink:title="reduction">
<ellipse fill="none" stroke="#000000" cx="247.0923" cy="-378" rx="55.4913" ry="18"/>
<text text-anchor="middle" x="247.0923" y="-374.3" font-family="Times,serif" font-size="14.00" fill="#000000">reduction</text>
</a>
</g>
</g>
<!-- reduction&#45;&gt;completeness -->
<g id="edge24" class="edge">
<title>reduction&#45;&gt;completeness</title>
<path fill="none" stroke="#000000" d="M236.3017,-360.3428C221.1444,-335.5398 193.4165,-290.167 175.6415,-261.0806"/>
<polygon fill="#000000" stroke="#000000" points="178.4497,-258.9637 170.2487,-252.256 172.4767,-262.6139 178.4497,-258.9637"/>
</g>
<!-- rewriting&#45;&gt;open_confluence -->
<g id="edge25" class="edge">
<title>rewriting&#45;&gt;open_confluence</title>
<path fill="none" stroke="#000000" d="M214.7139,-435.4297C191.2107,-424.8533 159.0854,-410.3969 132.9467,-398.6345"/>
<polygon fill="#000000" stroke="#000000" points="134.1701,-395.347 123.6146,-394.4351 131.2975,-401.7305 134.1701,-395.347"/>
</g>
<!-- rewriting&#45;&gt;reduction -->
<g id="edge26" class="edge">
<title>rewriting&#45;&gt;reduction</title>
<path fill="none" stroke="#000000" d="M247.0923,-431.8314C247.0923,-424.131 247.0923,-414.9743 247.0923,-406.4166"/>
<polygon fill="#000000" stroke="#000000" points="250.5924,-406.4132 247.0923,-396.4133 243.5924,-406.4133 250.5924,-406.4132"/>
</g>
<!-- mgraph -->
<g id="node29" class="node">
<title>mgraph</title>
<g id="a_node29"><a xlink:href="./current/GraphTheory.mgraph.html" xlink:title="mgraph">
<ellipse fill="none" stroke="#000000" cx="378.0923" cy="-594" rx="47" ry="18"/>
<text text-anchor="middle" x="378.0923" y="-590.3" font-family="Times,serif" font-size="14.00" fill="#000000">mgraph</text>
</a>
</g>
</g>
<!-- mgraph&#45;&gt;connectivity -->
<g id="edge29" class="edge">
<title>mgraph&#45;&gt;connectivity</title>
<path fill="none" stroke="#000000" d="M401.135,-578.1993C415.3969,-568.4197 433.9471,-555.6996 449.7914,-544.8349"/>
<polygon fill="#000000" stroke="#000000" points="452.0031,-547.5621 458.2711,-539.0202 448.0444,-541.789 452.0031,-547.5621"/>
</g>
<!-- mgraph&#45;&gt;mgraph2 -->
<g id="edge30" class="edge">
<title>mgraph&#45;&gt;mgraph2</title>
<path fill="none" stroke="#000000" d="M360.2334,-577.3008C350.2706,-567.985 337.6898,-556.221 326.6954,-545.9406"/>
<polygon fill="#000000" stroke="#000000" points="329.0838,-543.3821 319.389,-539.1086 324.3028,-548.4951 329.0838,-543.3821"/>
</g>
<!-- pttdom -->
<g id="node30" class="node">
<title>pttdom</title>
<g id="a_node30"><a xlink:href="./current/GraphTheory.pttdom.html" xlink:title="pttdom">
<ellipse fill="none" stroke="#000000" cx="267.0923" cy="-666" rx="44.393" ry="18"/>
<text text-anchor="middle" x="267.0923" y="-662.3" font-family="Times,serif" font-size="14.00" fill="#000000">pttdom</text>
</a>
</g>
</g>
<!-- pttdom&#45;&gt;ptt -->
<g id="edge31" class="edge">
<title>pttdom&#45;&gt;ptt</title>
<path fill="none" stroke="#000000" d="M269.3634,-647.8314C270.3259,-640.131 271.4705,-630.9743 272.5402,-622.4166"/>
<polygon fill="#000000" stroke="#000000" points="276.0232,-622.7702 273.7906,-612.4133 269.0772,-621.9019 276.0232,-622.7702"/>
</g>
<!-- structures&#45;&gt;mgraph -->
<g id="edge32" class="edge">
<title>structures&#45;&gt;mgraph</title>
<path fill="none" stroke="#000000" d="M284.4795,-720.9605C295.5253,-710.7806 309.2753,-697.2806 320.0923,-684 336.4614,-663.9026 352.2063,-638.9969 363.1504,-620.4837"/>
<polygon fill="#000000" stroke="#000000" points="366.2569,-622.1043 368.2662,-611.7017 360.2083,-618.5808 366.2569,-622.1043"/>
</g>
<!-- structures&#45;&gt;pttdom -->
<g id="edge33" class="edge">
<title>structures&#45;&gt;pttdom</title>
<path fill="none" stroke="#000000" d="M265.597,-719.8314C265.8109,-712.131 266.0652,-702.9743 266.3029,-694.4166"/>
<polygon fill="#000000" stroke="#000000" points="269.8017,-694.5066 266.5808,-684.4133 262.8044,-694.3122 269.8017,-694.5066"/>
</g>
<!-- cp_minor&#45;&gt;extraction_def -->
<g id="edge34" class="edge">
<title>cp_minor&#45;&gt;extraction_def</title>
<path fill="none" stroke="#000000" d="M423.8868,-215.8314C425.9412,-208.0463 428.3883,-198.7729 430.6678,-190.1347"/>
<polygon fill="#000000" stroke="#000000" points="434.0658,-190.9753 433.2332,-180.4133 427.2974,-189.1892 434.0658,-190.9753"/>
</g>
<!-- excluded -->
<g id="node33" class="node">
<title>excluded</title>
<g id="a_node33"><a xlink:href="./current/GraphTheory.excluded.html" xlink:title="excluded">
<ellipse fill="none" stroke="#000000" cx="521.0923" cy="-306" rx="52" ry="18"/>
<text text-anchor="middle" x="521.0923" y="-302.3" font-family="Times,serif" font-size="14.00" fill="#000000">excluded</text>
</a>
</g>
</g>
<!-- excluded&#45;&gt;wagner -->
<g id="edge37" class="edge">
<title>excluded&#45;&gt;wagner</title>
<path fill="none" stroke="#000000" d="M551.9047,-291.1845C568.4201,-281.9081 588.0044,-268.5679 601.0923,-252 617.9724,-230.6314 641.5226,-158.333 653.84,-117.9207"/>
<polygon fill="#000000" stroke="#000000" points="657.2512,-118.7314 656.7895,-108.1466 650.5497,-116.709 657.2512,-118.7314"/>
</g>
<!-- excluded&#45;&gt;cp_minor -->
<g id="edge38" class="edge">
<title>excluded&#45;&gt;cp_minor</title>
<path fill="none" stroke="#000000" d="M497.9469,-289.6621C483.8622,-279.72 465.689,-266.8918 450.3393,-256.0567"/>
<polygon fill="#000000" stroke="#000000" points="452.3342,-253.1807 442.1461,-250.2733 448.2973,-258.8995 452.3342,-253.1807"/>
</g>
<!-- minor&#45;&gt;smerge -->
<g id="edge39" class="edge">
<title>minor&#45;&gt;smerge</title>
<path fill="none" stroke="#000000" d="M558.2997,-362.7307C572.3282,-352.6301 590.9438,-339.2269 606.5581,-327.9846"/>
<polygon fill="#000000" stroke="#000000" points="608.8055,-330.6794 614.8758,-321.9959 604.7153,-324.9986 608.8055,-330.6794"/>
</g>
<!-- minor&#45;&gt;skeleton -->
<g id="edge40" class="edge">
<title>minor&#45;&gt;skeleton</title>
<path fill="none" stroke="#000000" d="M506.9077,-366.5894C501.0068,-364.3845 494.8608,-362.1061 489.0923,-360 453.3677,-346.9569 412.7713,-332.556 382.5251,-321.9082"/>
<polygon fill="#000000" stroke="#000000" points="383.6828,-318.6052 373.0879,-318.5895 381.3605,-325.2088 383.6828,-318.6052"/>
</g>
<!-- minor&#45;&gt;excluded -->
<g id="edge41" class="edge">
<title>minor&#45;&gt;excluded</title>
<path fill="none" stroke="#000000" d="M533.0548,-359.8314C531.3436,-352.131 529.3088,-342.9743 527.4071,-334.4166"/>
<polygon fill="#000000" stroke="#000000" points="530.7701,-333.4159 525.1841,-324.4133 523.9368,-334.9344 530.7701,-333.4159"/>
</g>
<!-- digraph&#45;&gt;sgraph -->
<g id="edge43" class="edge">
<title>digraph&#45;&gt;sgraph</title>
<path fill="none" stroke="#000000" d="M563.0923,-719.8314C563.0923,-712.131 563.0923,-702.9743 563.0923,-694.4166"/>
<polygon fill="#000000" stroke="#000000" points="566.5924,-694.4132 563.0923,-684.4133 559.5924,-694.4133 566.5924,-694.4132"/>
</g>
<!-- digraph&#45;&gt;mgraph -->
<g id="edge44" class="edge">
<title>digraph&#45;&gt;mgraph</title>
<path fill="none" stroke="#000000" d="M544.2077,-721.186C523.1684,-702.6752 487.918,-672.3163 456.0923,-648 441.461,-636.821 424.7333,-625.1074 410.5305,-615.4581"/>
<polygon fill="#000000" stroke="#000000" points="412.3023,-612.4314 402.055,-609.7401 408.3873,-618.2343 412.3023,-612.4314"/>
</g>
<!-- equiv -->
<g id="node36" class="node">
<title>equiv</title>
<g id="a_node36"><a xlink:href="./current/GraphTheory.equiv.html" xlink:title="equiv">
<ellipse fill="none" stroke="#000000" cx="411.0923" cy="-666" rx="36.5" ry="18"/>
<text text-anchor="middle" x="411.0923" y="-662.3" font-family="Times,serif" font-size="14.00" fill="#000000">equiv</text>
</a>
</g>
</g>
<!-- equiv&#45;&gt;mgraph -->
<g id="edge45" class="edge">
<title>equiv&#45;&gt;mgraph</title>
<path fill="none" stroke="#000000" d="M402.935,-648.2022C399.2066,-640.0675 394.7069,-630.2501 390.5673,-621.2181"/>
<polygon fill="#000000" stroke="#000000" points="393.6184,-619.4749 386.2701,-611.8425 387.255,-622.3915 393.6184,-619.4749"/>
</g>
<!-- finite_quotient&#45;&gt;equiv -->
<g id="edge46" class="edge">
<title>finite_quotient&#45;&gt;equiv</title>
<path fill="none" stroke="#000000" d="M417.8212,-719.8314C416.8586,-712.131 415.7141,-702.9743 414.6444,-694.4166"/>
<polygon fill="#000000" stroke="#000000" points="418.1073,-693.9019 413.3939,-684.4133 411.1614,-694.7702 418.1073,-693.9019"/>
</g>
<!-- finmap_plus&#45;&gt;open_confluence -->
<g id="edge53" class="edge">
<title>finmap_plus&#45;&gt;open_confluence</title>
<path fill="none" stroke="#000000" d="M95.3165,-431.8314C94.1401,-424.131 92.7411,-414.9743 91.4337,-406.4166"/>
<polygon fill="#000000" stroke="#000000" points="94.8756,-405.7699 89.9054,-396.4133 87.9559,-406.8272 94.8756,-405.7699"/>
</g>
<!-- setoid_bigop -->
<g id="node39" class="node">
<title>setoid_bigop</title>
<g id="a_node39"><a xlink:href="./current/GraphTheory.setoid_bigop.html" xlink:title="setoid_bigop">
<ellipse fill="none" stroke="#000000" cx="265.0923" cy="-810" rx="69.5877" ry="18"/>
<text text-anchor="middle" x="265.0923" y="-806.3" font-family="Times,serif" font-size="14.00" fill="#000000">setoid_bigop</text>
</a>
</g>
</g>
<!-- setoid_bigop&#45;&gt;structures -->
<g id="edge54" class="edge">
<title>setoid_bigop&#45;&gt;structures</title>
<path fill="none" stroke="#000000" d="M265.0923,-791.8314C265.0923,-784.131 265.0923,-774.9743 265.0923,-766.4166"/>
<polygon fill="#000000" stroke="#000000" points="268.5924,-766.4132 265.0923,-756.4133 261.5924,-766.4133 268.5924,-766.4132"/>
</g>
<!-- bounded -->
<g id="node40" class="node">
<title>bounded</title>
<g id="a_node40"><a xlink:href="./current/GraphTheory.bounded.html" xlink:title="bounded">
<ellipse fill="none" stroke="#000000" cx="541.0923" cy="-234" rx="50.8918" ry="18"/>
<text text-anchor="middle" x="541.0923" y="-230.3" font-family="Times,serif" font-size="14.00" fill="#000000">bounded</text>
</a>
</g>
</g>
<!-- bounded&#45;&gt;extraction_def -->
<g id="edge55" class="edge">
<title>bounded&#45;&gt;extraction_def</title>
<path fill="none" stroke="#000000" d="M517.9771,-217.8418C504.0647,-208.1166 486.1332,-195.582 470.7851,-184.8532"/>
<polygon fill="#000000" stroke="#000000" points="472.7674,-181.9686 462.5661,-179.1079 468.7569,-187.7059 472.7674,-181.9686"/>
</g>
<!-- edone -->
<g id="node41" class="node">
<title>edone</title>
<g id="a_node41"><a xlink:href="./current/GraphTheory.edone.html" xlink:title="edone">
<ellipse fill="none" stroke="#000000" cx="676.0923" cy="-954" rx="38.5" ry="18"/>
<text text-anchor="middle" x="676.0923" y="-950.3" font-family="Times,serif" font-size="14.00" fill="#000000">edone</text>
</a>
</g>
</g>
<!-- edone&#45;&gt;preliminaries -->
<g id="edge56" class="edge">
<title>edone&#45;&gt;preliminaries</title>
<path fill="none" stroke="#000000" d="M676.0923,-935.8314C676.0923,-928.131 676.0923,-918.9743 676.0923,-910.4166"/>
<polygon fill="#000000" stroke="#000000" points="679.5924,-910.4132 676.0923,-900.4133 672.5924,-910.4133 679.5924,-910.4132"/>
</g>
</g>
</svg>
